<?xml version="1.0" standalone="no"?>
<!DOCTYPE svg PUBLIC "-//W3C//DTD SVG 20010904//EN"
 "http://www.w3.org/TR/2001/REC-SVG-20010904/DTD/svg10.dtd">
<svg version="1.0" xmlns="http://www.w3.org/2000/svg"
 width="700.000000pt" height="700.000000pt" viewBox="0 0 700.000000 700.000000"
 preserveAspectRatio="xMidYMid meet">
<metadata>
Created by potrace 1.14, written by Peter Selinger 2001-2017
</metadata>
<g transform="translate(0.000000,700.000000) scale(0.100000,-0.100000)"
fill="#000000" stroke="none">
<path d="M3278 6995 c-1 -1 -42 -5 -89 -9 -47 -4 -95 -8 -105 -10 -10 -2 -46
-7 -79 -12 -33 -4 -62 -8 -65 -9 -3 0 -27 -4 -55 -9 -87 -13 -326 -73 -445
-111 -849 -273 -1561 -855 -1994 -1629 -153 -274 -278 -586 -342 -856 -50
-214 -72 -345 -91 -550 -16 -165 -9 -570 12 -714 3 -17 7 -49 9 -71 10 -83 18
-131 26 -165 5 -19 12 -48 14 -65 53 -294 196 -677 374 -994 121 -217 342
-524 466 -647 12 -11 35 -36 52 -55 31 -35 163 -162 244 -234 115 -104 370
-286 540 -385 246 -144 631 -302 865 -356 6 -1 48 -11 95 -22 108 -26 200 -44
299 -58 25 -3 57 -8 71 -10 163 -25 682 -25 842 1 13 2 46 7 73 10 74 11 87
13 120 19 17 4 46 9 65 12 132 21 518 137 650 196 30 14 75 33 100 44 166 70
428 221 605 348 529 380 944 900 1196 1504 70 167 154 430 185 577 16 75 54
300 60 350 4 33 9 76 11 95 8 70 10 517 3 595 -15 159 -21 210 -25 225 -2 8
-7 35 -10 60 -8 60 -40 213 -70 330 -86 339 -242 689 -450 1015 -42 65 -190
269 -229 313 -13 15 -43 50 -66 77 -132 155 -337 348 -510 479 -261 198 -480
326 -766 449 -243 104 -557 195 -804 232 -25 4 -54 9 -65 11 -10 2 -49 6 -85
10 -36 3 -78 8 -95 11 -33 5 -531 13 -537 8z m502 -419 c19 -2 60 -8 90 -11
238 -25 544 -104 794 -204 70 -28 289 -134 356 -172 50 -28 336 -217 355 -235
12 -11 41 -35 65 -54 123 -95 350 -323 461 -460 336 -419 557 -909 644 -1425
19 -111 19 -111 31 -245 15 -162 9 -533 -10 -635 -2 -11 -7 -46 -11 -79 -9
-78 -12 -92 -41 -226 -85 -383 -240 -740 -462 -1065 -131 -192 -195 -268 -387
-460 -328 -328 -709 -566 -1157 -724 -85 -29 -254 -78 -306 -87 -14 -3 -28 -7
-32 -9 -8 -5 -213 -41 -285 -50 -119 -14 -235 -20 -395 -20 -183 1 -319 10
-440 30 -14 2 -56 9 -95 15 -462 76 -982 311 -1370 619 -106 84 -139 114 -280
256 -385 387 -647 845 -793 1385 -22 79 -56 252 -67 333 -4 27 -8 57 -10 67
-26 134 -26 556 0 760 30 243 100 517 187 740 112 289 272 562 477 820 94 118
339 365 446 449 44 35 89 70 100 79 37 31 230 159 305 202 298 173 653 305
980 364 165 30 174 31 315 42 50 4 92 8 93 10 6 4 404 -4 442 -10z"/>
<path d="M1825 4320 c-234 -35 -231 -378 3 -405 20 -2 80 -7 132 -10 373 -23
753 -217 990 -505 25 -30 48 -57 51 -60 3 -3 24 -32 46 -65 150 -225 233 -481
247 -760 4 -101 19 -146 62 -188 42 -43 80 -59 138 -59 137 -1 216 93 211 251
-14 402 -148 776 -392 1093 -58 76 -212 232 -293 299 -285 232 -653 378 -1020
405 -41 3 -88 6 -105 8 -16 1 -48 -1 -70 -4z"/>
<path d="M5108 4325 c-2 -1 -46 -5 -98 -9 -176 -11 -341 -48 -513 -113 -278
-105 -493 -250 -705 -475 l-34 -36 49 -83 c43 -74 78 -143 141 -282 l17 -38
42 59 c206 281 584 503 933 547 30 4 66 8 78 10 13 2 56 5 95 6 149 3 237 81
237 209 0 109 -78 191 -192 202 -26 3 -49 4 -50 3z"/>
</g>
</svg>
