<svg width="101" height="34" viewBox="0 0 101 34" fill="none" xmlns="http://www.w3.org/2000/svg">
<path d="M0 17C0 7.61116 7.61116 0 17 0H84C93.3888 0 101 7.61116 101 17C101 26.3888 93.3888 34 84 34H17C7.61116 34 0 26.3888 0 17Z" fill="url(#paint0_linear)"/>
<path d="M24.868 21L23.644 18.672H23.596H22.012V21H19.816V12.588H23.596C24.708 12.588 25.568 12.848 26.176 13.368C26.792 13.88 27.1 14.604 27.1 15.54C27.1 16.172 26.972 16.72 26.716 17.184C26.46 17.64 26.088 17.996 25.6 18.252L27.352 21H24.868ZM22.012 16.92H23.608C24.056 16.92 24.4 16.808 24.64 16.584C24.888 16.36 25.012 16.036 25.012 15.612C25.012 15.204 24.888 14.892 24.64 14.676C24.4 14.452 24.056 14.34 23.608 14.34H22.012V16.92ZM28.4996 12.588H35.1356V14.34H30.6956V15.912H34.7036V17.652L30.6956 17.664V19.248H35.2556V21H28.4996V12.588ZM42.1653 16.704H44.0612V20.052C43.6133 20.38 43.0612 20.648 42.4052 20.856C41.7572 21.056 41.1412 21.156 40.5573 21.156C39.7092 21.156 38.9412 20.968 38.2533 20.592C37.5732 20.208 37.0372 19.684 36.6452 19.02C36.2532 18.356 36.0573 17.612 36.0573 16.788C36.0573 15.972 36.2572 15.236 36.6572 14.58C37.0652 13.916 37.6212 13.396 38.3252 13.02C39.0372 12.644 39.8292 12.456 40.7012 12.456C41.3253 12.456 41.9492 12.572 42.5732 12.804C43.1972 13.028 43.7253 13.332 44.1573 13.716L42.9092 15.252C42.6052 14.964 42.2532 14.736 41.8532 14.568C41.4612 14.4 41.0732 14.316 40.6893 14.316C40.2412 14.316 39.8372 14.424 39.4772 14.64C39.1173 14.856 38.8333 15.152 38.6253 15.528C38.4172 15.904 38.3132 16.324 38.3132 16.788C38.3132 17.26 38.4172 17.688 38.6253 18.072C38.8333 18.448 39.1213 18.744 39.4892 18.96C39.8572 19.176 40.2652 19.284 40.7133 19.284C41.1372 19.284 41.6212 19.148 42.1653 18.876V16.704ZM45.5152 12.588H47.7112V21H45.5152V12.588ZM55.1432 15.12C54.6953 14.856 54.2153 14.64 53.7032 14.472C53.1992 14.304 52.7752 14.22 52.4312 14.22C52.1593 14.22 51.9433 14.272 51.7832 14.376C51.6313 14.472 51.5553 14.616 51.5553 14.808C51.5553 14.992 51.6233 15.148 51.7592 15.276C51.8953 15.396 52.0633 15.496 52.2632 15.576C52.4632 15.648 52.7592 15.744 53.1512 15.864C53.7352 16.032 54.2153 16.2 54.5912 16.368C54.9752 16.536 55.3032 16.796 55.5753 17.148C55.8472 17.492 55.9832 17.944 55.9832 18.504C55.9832 19.064 55.8352 19.544 55.5392 19.944C55.2432 20.336 54.8352 20.632 54.3152 20.832C53.8033 21.032 53.2313 21.132 52.5992 21.132C51.9032 21.132 51.2073 21.012 50.5113 20.772C49.8233 20.524 49.2273 20.188 48.7233 19.764L49.5752 18.048C49.9992 18.424 50.4992 18.732 51.0752 18.972C51.6592 19.212 52.1752 19.332 52.6232 19.332C52.9512 19.332 53.2072 19.272 53.3913 19.152C53.5832 19.032 53.6792 18.856 53.6792 18.624C53.6792 18.432 53.6072 18.272 53.4633 18.144C53.3273 18.016 53.1513 17.916 52.9353 17.844C52.7272 17.764 52.4312 17.672 52.0473 17.568C51.4713 17.408 50.9952 17.248 50.6192 17.088C50.2433 16.92 49.9193 16.672 49.6473 16.344C49.3832 16.008 49.2512 15.564 49.2512 15.012C49.2512 14.492 49.3872 14.036 49.6592 13.644C49.9392 13.252 50.3312 12.952 50.8353 12.744C51.3473 12.528 51.9393 12.42 52.6113 12.42C53.2193 12.42 53.8193 12.508 54.4113 12.684C55.0033 12.852 55.5233 13.08 55.9713 13.368L55.1432 15.12ZM56.3731 12.588H63.5851V14.4H61.0651V21H58.8691V14.4H56.3731V12.588ZM64.4762 12.588H71.1122V14.34H66.6722V15.912H70.6802V17.652L66.6722 17.664V19.248H71.2322V21H64.4762V12.588ZM77.6258 21L76.4018 18.672H76.3538H74.7698V21H72.5738V12.588H76.3538C77.4658 12.588 78.3258 12.848 78.9338 13.368C79.5498 13.88 79.8578 14.604 79.8578 15.54C79.8578 16.172 79.7298 16.72 79.4738 17.184C79.2178 17.64 78.8458 17.996 78.3578 18.252L80.1098 21H77.6258ZM74.7698 16.92H76.3658C76.8138 16.92 77.1578 16.808 77.3978 16.584C77.6458 16.36 77.7698 16.036 77.7698 15.612C77.7698 15.204 77.6458 14.892 77.3978 14.676C77.1578 14.452 76.8138 14.34 76.3658 14.34H74.7698V16.92Z" fill="white"/>
<defs>
<linearGradient id="paint0_linear" x1="50.5" y1="0" x2="50.5" y2="34" gradientUnits="userSpaceOnUse">
<stop stop-color="#BC9CFF"/>
<stop offset="1" stop-color="#8BA4F9"/>
</linearGradient>
</defs>
</svg>
