<svg width="79" height="34" viewBox="0 0 79 34" fill="none" xmlns="http://www.w3.org/2000/svg">
<path d="M1 17C1 8.16344 8.16344 1 17 1H62C70.8366 1 78 8.16344 78 17C78 25.8366 70.8366 33 62 33H17C8.16344 33 1 25.8366 1 17Z" stroke="url(#paint0_linear)" stroke-width="2"/>
<path d="M20.996 12.6H22.94V19.416H27.152V21H20.996V12.6ZM32.1656 21.144C31.2936 21.144 30.5056 20.956 29.8016 20.58C29.1056 20.204 28.5576 19.688 28.1576 19.032C27.7656 18.368 27.5696 17.624 27.5696 16.8C27.5696 15.976 27.7656 15.236 28.1576 14.58C28.5576 13.916 29.1056 13.396 29.8016 13.02C30.5056 12.644 31.2936 12.456 32.1656 12.456C33.0376 12.456 33.8216 12.644 34.5176 13.02C35.2136 13.396 35.7616 13.916 36.1616 14.58C36.5616 15.236 36.7616 15.976 36.7616 16.8C36.7616 17.624 36.5616 18.368 36.1616 19.032C35.7616 19.688 35.2136 20.204 34.5176 20.58C33.8216 20.956 33.0376 21.144 32.1656 21.144ZM32.1656 19.488C32.6616 19.488 33.1096 19.376 33.5096 19.152C33.9096 18.92 34.2216 18.6 34.4456 18.192C34.6776 17.784 34.7936 17.32 34.7936 16.8C34.7936 16.28 34.6776 15.816 34.4456 15.408C34.2216 15 33.9096 14.684 33.5096 14.46C33.1096 14.228 32.6616 14.112 32.1656 14.112C31.6696 14.112 31.2216 14.228 30.8216 14.46C30.4216 14.684 30.1056 15 29.8736 15.408C29.6496 15.816 29.5376 16.28 29.5376 16.8C29.5376 17.32 29.6496 17.784 29.8736 18.192C30.1056 18.6 30.4216 18.92 30.8216 19.152C31.2216 19.376 31.6696 19.488 32.1656 19.488ZM43.8986 16.668H45.6746V20.076C45.2186 20.42 44.6906 20.684 44.0906 20.868C43.4906 21.052 42.8866 21.144 42.2786 21.144C41.4066 21.144 40.6226 20.96 39.9266 20.592C39.2306 20.216 38.6826 19.7 38.2826 19.044C37.8906 18.38 37.6946 17.632 37.6946 16.8C37.6946 15.968 37.8906 15.224 38.2826 14.568C38.6826 13.904 39.2346 13.388 39.9386 13.02C40.6426 12.644 41.4346 12.456 42.3146 12.456C43.0506 12.456 43.7186 12.58 44.3186 12.828C44.9186 13.076 45.4226 13.436 45.8306 13.908L44.5826 15.06C43.9826 14.428 43.2586 14.112 42.4106 14.112C41.8746 14.112 41.3986 14.224 40.9826 14.448C40.5666 14.672 40.2426 14.988 40.0106 15.396C39.7786 15.804 39.6626 16.272 39.6626 16.8C39.6626 17.32 39.7786 17.784 40.0106 18.192C40.2426 18.6 40.5626 18.92 40.9706 19.152C41.3866 19.376 41.8586 19.488 42.3866 19.488C42.9466 19.488 43.4506 19.368 43.8986 19.128V16.668ZM47.4804 12.6H49.4244V21H47.4804V12.6ZM59.1219 12.6V21H57.5259L53.3379 15.9V21H51.4179V12.6H53.0259L57.2019 17.7V12.6H59.1219Z" fill="#BC9CFF"/>
<defs>
<linearGradient id="paint0_linear" x1="39.5" y1="0" x2="39.5" y2="34" gradientUnits="userSpaceOnUse">
<stop stop-color="#BC9CFF"/>
<stop offset="1" stop-color="#8BA4F9"/>
</linearGradient>
</defs>
</svg>
